<mxfile host="Electron" agent="Mozilla/5.0 (Windows NT 10.0; Win64; x64) AppleWebKit/537.36 (KHTML, like Gecko) draw.io/24.7.17 Chrome/128.0.6613.36 Electron/32.0.1 Safari/537.36" version="24.7.17">
  <diagram name="Страница — 1" id="2NX9OIUifDn-IeqZuW0v">
    <mxGraphModel dx="1052" dy="704" grid="1" gridSize="10" guides="1" tooltips="1" connect="1" arrows="1" fold="1" page="1" pageScale="1" pageWidth="900" pageHeight="1600" math="0" shadow="0">
      <root>
        <mxCell id="0" />
        <mxCell id="1" parent="0" />
        <mxCell id="xaPDUZxKduhi3FaCsTeQ-1" value="" style="rounded=1;whiteSpace=wrap;html=1;arcSize=3;" vertex="1" parent="1">
          <mxGeometry x="120" y="220" width="390" height="520" as="geometry" />
        </mxCell>
        <mxCell id="xaPDUZxKduhi3FaCsTeQ-2" value="" style="rounded=1;whiteSpace=wrap;html=1;strokeColor=#009900;fillColor=none;dashed=1;arcSize=7;fontColor=#ffffff;" vertex="1" parent="1">
          <mxGeometry x="190" y="440" width="280" height="281.5" as="geometry" />
        </mxCell>
        <mxCell id="xaPDUZxKduhi3FaCsTeQ-3" value="" style="rounded=1;whiteSpace=wrap;html=1;strokeColor=#BD7000;fillColor=none;dashed=1;arcSize=7;fontColor=#000000;" vertex="1" parent="1">
          <mxGeometry x="170" y="291.5" width="320" height="258.5" as="geometry" />
        </mxCell>
        <mxCell id="xaPDUZxKduhi3FaCsTeQ-4" value="&lt;b style=&quot;border-color: var(--border-color); color: rgb(51, 51, 255); font-family: Helvetica; font-size: 10px; font-style: normal; font-variant-ligatures: normal; font-variant-caps: normal; letter-spacing: normal; orphans: 2; text-indent: 0px; text-transform: none; widows: 2; word-spacing: 0px; -webkit-text-stroke-width: 0px; text-decoration-thickness: initial; text-decoration-style: initial; text-decoration-color: initial;&quot;&gt;:8888&lt;/b&gt;" style="text;whiteSpace=wrap;html=1;align=center;" vertex="1" parent="1">
          <mxGeometry x="345.31" y="195" width="43.67" height="25" as="geometry" />
        </mxCell>
        <mxCell id="xaPDUZxKduhi3FaCsTeQ-5" value="&lt;b&gt;https&amp;nbsp; wss&lt;br&gt;&lt;/b&gt;" style="text;html=1;align=center;verticalAlign=middle;resizable=0;points=[];autosize=1;strokeColor=none;fillColor=none;fontFamily=Lucida Console;" vertex="1" parent="1">
          <mxGeometry x="288.98" y="230" width="100" height="30" as="geometry" />
        </mxCell>
        <mxCell id="xaPDUZxKduhi3FaCsTeQ-6" style="edgeStyle=orthogonalEdgeStyle;rounded=0;orthogonalLoop=1;jettySize=auto;html=1;exitX=0.5;exitY=1;exitDx=0;exitDy=0;entryX=0.5;entryY=0;entryDx=0;entryDy=0;endArrow=oval;endFill=1;startArrow=oval;startFill=1;strokeColor=#3333FF;" edge="1" parent="1" source="xaPDUZxKduhi3FaCsTeQ-7" target="xaPDUZxKduhi3FaCsTeQ-15">
          <mxGeometry relative="1" as="geometry" />
        </mxCell>
        <mxCell id="xaPDUZxKduhi3FaCsTeQ-7" value="" style="rounded=0;whiteSpace=wrap;html=1;labelBackgroundColor=default;fontSize=12;fillColor=#dae8fc;strokeColor=none;verticalAlign=bottom;labelPosition=left;verticalLabelPosition=top;align=center;shadow=1;" vertex="1" parent="1">
          <mxGeometry x="240" y="324" width="209.34" height="89" as="geometry" />
        </mxCell>
        <mxCell id="xaPDUZxKduhi3FaCsTeQ-8" value=":443" style="text;html=1;align=center;verticalAlign=middle;resizable=0;points=[];autosize=1;strokeColor=none;fillColor=none;fontSize=10;fontColor=#3333FF;spacing=0;" vertex="1" parent="1">
          <mxGeometry x="339.99999999999994" y="324" width="40" height="20" as="geometry" />
        </mxCell>
        <mxCell id="xaPDUZxKduhi3FaCsTeQ-9" style="edgeStyle=orthogonalEdgeStyle;rounded=0;orthogonalLoop=1;jettySize=auto;html=1;entryX=0.5;entryY=0;entryDx=0;entryDy=0;endArrow=oval;endFill=1;strokeColor=#2D7600;fillColor=#60a917;" edge="1" parent="1" target="xaPDUZxKduhi3FaCsTeQ-7">
          <mxGeometry relative="1" as="geometry">
            <mxPoint x="345" y="161.5" as="sourcePoint" />
            <Array as="points">
              <mxPoint x="345" y="250" />
              <mxPoint x="345" y="250" />
            </Array>
          </mxGeometry>
        </mxCell>
        <mxCell id="xaPDUZxKduhi3FaCsTeQ-10" value="" style="strokeColor=#dddddd;shadow=1;strokeWidth=1;rounded=1;absoluteArcSize=1;arcSize=2;container=0;" vertex="1" parent="1">
          <mxGeometry x="262.04999999999995" y="345" width="167.95" height="60" as="geometry" />
        </mxCell>
        <mxCell id="xaPDUZxKduhi3FaCsTeQ-11" value="" style="verticalLabelPosition=bottom;html=1;verticalAlign=top;strokeWidth=1;align=center;outlineConnect=0;dashed=0;outlineConnect=0;shape=mxgraph.aws3d.application;fillColor=#4286c5;strokeColor=#57A2D8;aspect=fixed;labelBackgroundColor=default;fontSize=12;fontColor=default;" vertex="1" parent="1">
          <mxGeometry x="421.9799999999998" y="332" width="18.02" height="20" as="geometry" />
        </mxCell>
        <mxCell id="xaPDUZxKduhi3FaCsTeQ-12" value="" style="shape=image;verticalLabelPosition=middle;labelBackgroundColor=default;verticalAlign=middle;aspect=fixed;imageAspect=0;image=data:image/svg+xml,PHN2ZyB4bWxucz0iaHR0cDovL3d3dy53My5vcmcvMjAwMC9zdmciIGlkPSJMYXllcl8xIiBkYXRhLW5hbWU9IkxheWVyIDEiIHZpZXdCb3g9IjAgMCA2My4zNiA3My40NCI+PGRlZnM+PHN0eWxlPi5jbHMtMXtmaWxsOiMwMDk2Mzk7fS5jbHMtMntmaWxsOiNmZmY7fS5jbHMtM3tmaWxsOiM5OTk7fTwvc3R5bGU+PC9kZWZzPjx0aXRsZT5OR0lOWC1oZXgtc291cmNlLVJHQi0wMjwvdGl0bGU+PHBhdGggY2xhc3M9ImNscy0xIiBkPSJNLjUwMjcyLDU0LjcyMWEzLjYzNywzLjYzNywwLDAsMCwxLjM2NjQxLDEuMzU1OTNMMjkuODIxOTIsNzIuMjE1NDlsLjAwMDg3LS4wMDA4N2EzLjY2NzkzLDMuNjY3OTMsMCwwLDAsMy43MTUyOSwwTDYxLjQ5MTc1LDU2LjA3NjA2YTMuNjY1NjgsMy42NjU2OCwwLDAsMCwxLjg1Njc3LTMuMjE2MTlWMjAuNTgyNzVsLS4wMDA4Ny0uMDAwODdBMy42NjY4NSwzLjY2Njg1LDAsMCwwLDYxLjQ5LDE3LjM2NDgxTDMzLjUzNjM0LDEuMjI2MjVWMS4yMjUzOGEzLjY2MzEzLDMuNjYzMTMsMCwwLDAtMy43MTI2OCwwdi4wMDA4N0wxLjg3MDg3LDE3LjM2NDgxQTMuNjY1MywzLjY2NTMsMCwwLDAsLjAxMjM1LDIwLjU4MTg4bC0uMDAwODcuMDAwODdWNTIuODU5ODdBMy42NDQyNiwzLjY0NDI2LDAsMCwwLC41MDE4NSw1NC43MjEiLz48cGF0aCBjbGFzcz0iY2xzLTIiIGQ9Ik0yMi43MzAxNSw0OS4wMDhhMy41OTQ4OCwzLjU5NDg4LDAsMCwxLTcuMTg5NzYsMGwuMDAwODguMDAwODguMDAzNDktMjQuNjc3MjdjMC0xLjkxMTc0LDEuNjg5MjQtMy40OTI3OSw0LjA4MTc1LTMuNDkyNzlhNi4zOTI4Miw2LjM5MjgyLDAsMCwxLDQuOTAwMjEsMi4xOTFMMjUuNjEzLDI0LjMyOTg5LDQwLjYzMTI0LDQyLjMwMjUzVjI0LjQzMkg0MC42Mjk1YTMuNTk0ODgsMy41OTQ4OCwwLDAsMSw3LjE4OTc1LDBoLS4wMDA4N2wtLjAwMzQ5LDI0LjY3NTUyYzAsMS45MTE3NS0xLjY5MDExLDMuNDkyNzktNC4wODE3NSwzLjQ5Mjc5YTYuMzg4NTcsNi4zODg1NywwLDAsMS00LjkwMDIxLTIuMTkxTDIyLjcyODQsMzEuMTM2NTlWNDkuMDA4OVoiLz48cGF0aCBjbGFzcz0iY2xzLTMiIGQ9Ik01OS45NzQ3OCw2Ni4wMzQxaC40NTkzNFY2NS4wMTFoLjM2MzM1YTEuMDM2NzQsMS4wMzY3NCwwLDAsMSwuNTEwMzcuMDg1MjIuNjM5MTcuNjM5MTcsMCwwLDEsLjI0MjU1LjU5NTEzdi4yMDk3NmwuMDEwMjkuMDc4MmEuMTU3ODEuMTU3ODEsMCwwLDEsLjAwNy4wMzI3OGMuMDAyMzQuMDEyNjQuMDAzMjguMDE2MzguMDEwMy4wMjJoLjQyNTYzbC0uMDE1NDYtLjAyOWEuMjk4NjMuMjk4NjMsMCwwLDEtLjAyMDYtLjEzM2MtLjAwNjA5LS4wNzM1MS0uMDA2MDktLjEzNjI1LS4wMDYwOS0uMTk0MzF2LS4xOTM4NWEuNzQxOTQuNzQxOTQsMCwwLDAtLjE0MjM0LS40MDU0OS42NjEyOS42NjEyOSwwLDAsMC0uNDUzMjUtLjI1NDcyLDEuMTE4ODQsMS4xMTg4NCwwLDAsMCwuMzc3ODctLjEyMjY4LjU2NjczLjU2NjczLDAsMCwwLC4yNTM3OC0uNTE1MDUuNjQwMDguNjQwMDgsMCwwLDAtLjQwMTc0LS42NjA2OCwxLjk5OTA2LDEuOTk5MDYsMCwwLDAtLjcxMjE5LS4wOTMxOGgtLjkwODg0Wm0xLjMwNjM3LTEuNDAyODJhMS4xODgyLDEuMTg4MiwwLDAsMS0uNDM2ODYuMDU4MDZoLS40MTAxN1Y2My43NDIxaC4zOTE0NGExLjE1NTUsMS4xNTU1LDAsMCwxLC41NTIuMTAxNjEuMzk0MTMuMzk0MTMsMCwwLDEsLjE3Mjc4LjM3OTc0LjQwMDg3LjQwMDg3LDAsMCwxLS4yNjkyNC40MDc4M20xLjMzNC0xLjU2MzlhMi4zMDc5MiwyLjMwNzkyLDAsMCwwLTEuNjg3LS42ODk3MSwyLjM3MywyLjM3MywwLDAsMCwwLDQuNzQ2LDIuMzc3MjQsMi4zNzcyNCwwLDAsMCwxLjY4Ny00LjA1NjNtLS4yNDExNC4yMzU1MmExLjk0MzU5LDEuOTQzNTksMCwwLDEsLjU5NTU5LDEuNDQzNTYsMi4wMzkyMiwyLjAzOTIyLDAsMCwxLTMuNDg1NTIsMS40NTA1OSwyLjAxMzExLDIuMDEzMTEsMCwwLDEtLjU5Mjc5LTEuNDUwNTlBMi4wNDYyNywyLjA0NjI3LDAsMCwxLDYwLjkyODEsNjIuNjk3YTEuOTQ2LDEuOTQ2LDAsMCwxLDEuNDQ1OTEuNjA1ODkiLz48L3N2Zz4=;labelPosition=left;align=right;fontSize=18;" vertex="1" parent="1">
          <mxGeometry x="275" y="349.21" width="39.52" height="45.79" as="geometry" />
        </mxCell>
        <mxCell id="xaPDUZxKduhi3FaCsTeQ-13" value="&lt;font color=&quot;#000000&quot; style=&quot;border-color: var(--border-color); font-family: Helvetica; font-size: 12px; font-style: normal; font-variant-ligatures: normal; font-variant-caps: normal; font-weight: 400; letter-spacing: normal; orphans: 2; text-align: left; text-indent: 0px; text-transform: none; widows: 2; word-spacing: 0px; -webkit-text-stroke-width: 0px; background-color: rgb(255, 255, 255); text-decoration-thickness: initial; text-decoration-style: initial; text-decoration-color: initial;&quot;&gt;Nginx&lt;/font&gt;&lt;br style=&quot;border-color: var(--border-color); color: rgb(153, 153, 153); font-family: Helvetica; font-size: 12px; font-style: normal; font-variant-ligatures: normal; font-variant-caps: normal; font-weight: 400; letter-spacing: normal; orphans: 2; text-align: left; text-indent: 0px; text-transform: none; widows: 2; word-spacing: 0px; -webkit-text-stroke-width: 0px; background-color: rgb(255, 255, 255); text-decoration-thickness: initial; text-decoration-style: initial; text-decoration-color: initial;&quot;&gt;&lt;span style=&quot;color: rgb(153, 153, 153); font-family: Helvetica; font-size: 12px; font-style: normal; font-variant-ligatures: normal; font-variant-caps: normal; font-weight: 400; letter-spacing: normal; orphans: 2; text-align: left; text-indent: 0px; text-transform: none; widows: 2; word-spacing: 0px; -webkit-text-stroke-width: 0px; background-color: rgb(255, 255, 255); text-decoration-thickness: initial; text-decoration-style: initial; text-decoration-color: initial; float: none; display: inline !important;&quot;&gt;Proxy Server&lt;/span&gt;" style="text;whiteSpace=wrap;html=1;" vertex="1" parent="1">
          <mxGeometry x="325.98" y="355" width="96" height="37" as="geometry" />
        </mxCell>
        <mxCell id="xaPDUZxKduhi3FaCsTeQ-14" style="edgeStyle=orthogonalEdgeStyle;rounded=0;orthogonalLoop=1;jettySize=auto;html=1;exitX=0.5;exitY=1;exitDx=0;exitDy=0;entryX=0.5;entryY=0;entryDx=0;entryDy=0;endArrow=oval;endFill=1;startArrow=oval;startFill=1;strokeColor=#3333FF;" edge="1" parent="1" source="xaPDUZxKduhi3FaCsTeQ-15" target="xaPDUZxKduhi3FaCsTeQ-20">
          <mxGeometry relative="1" as="geometry" />
        </mxCell>
        <mxCell id="xaPDUZxKduhi3FaCsTeQ-15" value="" style="rounded=0;whiteSpace=wrap;html=1;labelBackgroundColor=default;fontSize=12;fillColor=#dae8fc;strokeColor=none;verticalAlign=bottom;labelPosition=left;verticalLabelPosition=top;align=center;shadow=1;" vertex="1" parent="1">
          <mxGeometry x="240" y="448" width="209.34" height="89" as="geometry" />
        </mxCell>
        <mxCell id="xaPDUZxKduhi3FaCsTeQ-16" value="" style="strokeColor=#dddddd;shadow=1;strokeWidth=1;rounded=1;absoluteArcSize=1;arcSize=2;container=0;" vertex="1" parent="1">
          <mxGeometry x="260" y="462.5" width="172.05" height="60" as="geometry" />
        </mxCell>
        <mxCell id="xaPDUZxKduhi3FaCsTeQ-17" value="" style="verticalLabelPosition=bottom;html=1;verticalAlign=top;strokeWidth=1;align=center;outlineConnect=0;dashed=0;outlineConnect=0;shape=mxgraph.aws3d.application;fillColor=#4286c5;strokeColor=#57A2D8;aspect=fixed;labelBackgroundColor=default;fontSize=12;fontColor=default;" vertex="1" parent="1">
          <mxGeometry x="421.9799999999998" y="456" width="18.02" height="20" as="geometry" />
        </mxCell>
        <mxCell id="xaPDUZxKduhi3FaCsTeQ-18" value=":8080" style="text;html=1;align=center;verticalAlign=middle;resizable=0;points=[];autosize=1;strokeColor=none;fillColor=none;fontSize=10;fontColor=#3333FF;spacing=0;" vertex="1" parent="1">
          <mxGeometry x="343.99999999999994" y="448" width="40" height="20" as="geometry" />
        </mxCell>
        <mxCell id="xaPDUZxKduhi3FaCsTeQ-19" style="edgeStyle=orthogonalEdgeStyle;rounded=1;orthogonalLoop=1;jettySize=auto;html=1;exitX=0;exitY=0.5;exitDx=0;exitDy=0;curved=0;entryX=0.5;entryY=0;entryDx=0;entryDy=0;entryPerimeter=0;" edge="1" parent="1" source="xaPDUZxKduhi3FaCsTeQ-20" target="xaPDUZxKduhi3FaCsTeQ-29">
          <mxGeometry relative="1" as="geometry">
            <mxPoint x="137.29999999999995" y="741.5" as="targetPoint" />
          </mxGeometry>
        </mxCell>
        <mxCell id="xaPDUZxKduhi3FaCsTeQ-20" value="" style="rounded=0;whiteSpace=wrap;html=1;labelBackgroundColor=default;fontSize=12;fillColor=#dae8fc;strokeColor=none;verticalAlign=bottom;labelPosition=left;verticalLabelPosition=top;align=center;shadow=1;" vertex="1" parent="1">
          <mxGeometry x="240" y="591.5" width="209.34" height="89" as="geometry" />
        </mxCell>
        <mxCell id="xaPDUZxKduhi3FaCsTeQ-21" value=":22" style="text;html=1;align=center;verticalAlign=middle;resizable=0;points=[];autosize=1;strokeColor=none;fillColor=none;fontSize=10;fontColor=#3333FF;spacing=0;" vertex="1" parent="1">
          <mxGeometry x="343.99999999999994" y="590" width="30" height="20" as="geometry" />
        </mxCell>
        <mxCell id="xaPDUZxKduhi3FaCsTeQ-22" value="" style="strokeColor=#dddddd;shadow=1;strokeWidth=1;rounded=1;absoluteArcSize=1;arcSize=2;" vertex="1" parent="1">
          <mxGeometry x="263.31999999999994" y="608.5" width="166.68" height="60" as="geometry" />
        </mxCell>
        <mxCell id="xaPDUZxKduhi3FaCsTeQ-23" value="&amp;nbsp; &amp;nbsp;Ubuntu 22.04&lt;br&gt;&amp;nbsp; &amp;nbsp;&lt;font color=&quot;#999999&quot;&gt;shared-server&lt;/font&gt;" style="shape=image;verticalLabelPosition=middle;labelBackgroundColor=default;verticalAlign=middle;aspect=fixed;imageAspect=0;image=data:image/svg+xml,PHN2ZyB4bWxucz0iaHR0cDovL3d3dy53My5vcmcvMjAwMC9zdmciIHZpZXdCb3g9IjAgMCAxMjggMTI4Ij48cGF0aCBkPSJNNjQgMy4yNDZDMzAuNDQ1IDMuMjQ2IDMuMjQ1IDMwLjQ0NiAzLjI0NSA2NGMwIDMzLjU1MiAyNy4yIDYwLjc1NCA2MC43NTUgNjAuNzU0IDMzLjU1NCAwIDYwLjc1NS0yNy4yMDIgNjAuNzU1LTYwLjc1NCAwLTMzLjU1NC0yNy4yLTYwLjc1NC02MC43NTUtNjAuNzU0em0xMy42MzEgMjAuOTIyYTguMTA4IDguMTA4IDAgMTExNC4wNDYgOC4xMDhBOC4xMDUgOC4xMDUgMCAwMTgwLjYgMzUuMjQzYTguMTEgOC4xMSAwIDAxLTIuOTY5LTExLjA3NXpNNjQgMjguNzYzYzMuMjYyIDAgNi40MTcuNDUzIDkuNDE0IDEuMjgxYTExLjM1NyAxMS4zNTcgMCAwMDUuNTQ4IDguMDQyIDExLjM3OCAxMS4zNzggMCAwMDkuNzI1Ljc4OWM1Ljk5OCA1Ljg5OCA5LjkwMSAxMy45MTkgMTAuNDcgMjIuODU0bC0xMS41NTguMTdDODYuNTMyIDQ5Ljc5NiA3Ni4zNzcgNDAuMzA2IDY0IDQwLjMwNmEyMy42IDIzLjYgMCAwMC05Ljk4IDIuMjAzTDQ4LjM4MyAzMi40MUEzNS4xMTYgMzUuMTE2IDAgMDE2NCAyOC43NjN6TTIyLjY4OSA3Mi4xMTJBOC4xMTIgOC4xMTIgMCAwMTE0LjU3NiA2NGE4LjExMSA4LjExMSAwIDAxOC4xMTMtOC4xMTMgOC4xMTMgOC4xMTMgMCAwMTAgMTYuMjI1em03LjE5MS43MjJBMTEuMzc3IDExLjM3NyAwIDAwMzQuMDggNjRjMC0zLjU2NS0xLjYzOS02Ljc0Ny00LjItOC44MzYgMi4xOTQtOC40ODkgNy40NzUtMTUuNzM4IDE0LjU3MS0yMC40ODNsNS45MzEgOS45MzRDNDQuMjkgNDguOTAyIDQwLjMwOCA1NS45ODQgNDAuMzA4IDY0czMuOTgxIDE1LjA5OCAxMC4wNzQgMTkuMzgzbC01LjkzMSA5LjkzN2MtNy4wOTktNC43NDQtMTIuMzgtMTEuOTk1LTE0LjU3MS0yMC40ODZ6bTU4LjgzMSAzMy45NjRhOC4xMDUgOC4xMDUgMCAwMS0xMS4wNzctMi45NjljLTIuMjQxLTMuODc3LS45MTEtOC44MzUgMi45NjktMTEuMDc2IDMuODc3LTIuMjM5IDguODM4LS45MDggMTEuMDc3IDIuOTY5YTguMTA2IDguMTA2IDAgMDEtMi45NjkgMTEuMDc2em0tLjAyNC0xNy42NzNhMTEuMzU3IDExLjM1NyAwIDAwLTkuNzI1Ljc4OCAxMS4zNiAxMS4zNiAwIDAwLTUuNTQ3IDguMDQyQTM1LjIzMiAzNS4yMzIgMCAwMTY0IDk5LjIzOWEzNS4wOTcgMzUuMDk3IDAgMDEtMTUuNjE2LTMuNjQ5bDUuNjM2LTEwLjFBMjMuNiAyMy42IDAgMDA2NCA4Ny42OTRjMTIuMzc4IDAgMjIuNTMyLTkuNDg4IDIzLjU5Ni0yMS41OTJsMTEuNTYxLjE2OWMtLjU2OSA4LjkzNS00LjQ3MiAxNi45NTYtMTAuNDcgMjIuODU0eiIgZmlsbD0iI0RENDgxNCIvPjwvc3ZnPg==;labelPosition=right;align=left;html=1;" vertex="1" parent="1">
          <mxGeometry x="273.31999999999994" y="617.5" width="44" height="44" as="geometry" />
        </mxCell>
        <mxCell id="xaPDUZxKduhi3FaCsTeQ-24" value="" style="verticalLabelPosition=bottom;html=1;verticalAlign=top;strokeWidth=1;align=center;outlineConnect=0;dashed=0;outlineConnect=0;shape=mxgraph.aws3d.application;fillColor=#4286c5;strokeColor=#57A2D8;aspect=fixed;labelBackgroundColor=default;fontSize=12;fontColor=default;" vertex="1" parent="1">
          <mxGeometry x="421.9799999999998" y="599.5" width="18.02" height="20" as="geometry" />
        </mxCell>
        <mxCell id="xaPDUZxKduhi3FaCsTeQ-25" value="&amp;nbsp; Flask / python&lt;br&gt;&amp;nbsp; &lt;font color=&quot;#999999&quot;&gt;SSH connector&lt;/font&gt;" style="shape=image;verticalLabelPosition=middle;labelBackgroundColor=default;verticalAlign=middle;aspect=fixed;imageAspect=0;image=data:image/svg+xml,PHN2ZyB4bWxucz0iaHR0cDovL3d3dy53My5vcmcvMjAwMC9zdmciIHZpZXdCb3g9IjAgMCAxMjggMTI4Ij48cGF0aCBkPSJNNDQuNDQgMTAwLjYzYy00LjIzLTMuMzMtOC43NC02LjUyLTExLjgzLTExLjAxLTYuNDktNy45Mi0xMS40OS0xNy4xLTE0LjktMjYuNzQtMi4wNy02LjI3LTIuNzctMTIuOTktNS40NC0xOS4wMi0yLjc4LTQuMzguNDgtOS4xNiA1LjI3LTEwLjU1IDIuMTMtLjQxIDUuODktMi40MyAxLjM2LS45OC00LjA2IDIuOTgtNC40NS0yLjcxLS4yOS0zLjA3IDIuODQtLjM4IDMuODktMi43IDIuOTItNC44LTMuMDUtMS45OSA3LjQtNC4xOCAyLjE0LTcuMTUtNS40OC01LjkxIDcuNjYtNy4wNSA0LjQyLS4zMy0uNzcgNS4xNiA5LjE4LS45NSA2Ljg3IDUuMDEgMi4zNSAyLjg2IDguOC42NSA4LjYzIDQuNjcgMy40Mi4yNCA0LjYgMy4xMSA3LjggMy4zMyAzLjMzIDEuNSA5LjM2IDIuNjkgMTAuNDkgNi40NC0zLjMgMi42MS0xMC45NS01LjQtMTEuMzEgMS44NCAxIDEwLjY5Ljc0IDIxLjcgNC42NSAzMS44OCAxLjg1IDYuMTYgNi4zMyAxMS4wMSAxMC4zOCAxNS44MSAzLjg4IDQuNyA5LjEyIDguMDEgMTQuNDggMTAuOCA0LjY5IDIuMjEgOS43NSAzLjY4IDE0Ljg3IDQuNiAyLjA3LTEuNTkgNS43NC03LjQ4IDguOTctNSAuMTYgMi44LTYuNDIgNS44NC0uMzEgNS41NCAzLjU5LTEuMDggNi4wOCAyLjc3IDkuMDQtLjcxIDIuNzIgMy4yMyAxMS4zMi0yLjA2IDkuMzggNC41My0yLjYyIDEuNjktNi40NC42Ny05LjA3IDMtNC4zMy0yLjE2LTcuNzcgMS45My0xMi41NiAxLjQyLTUuMzIuOTUtMTAuNzMgMS4zNC0xNi4xMyAxLjM0LTguODUtLjctMTcuODktLjk5LTI2LjMtNC4wNy00Ljc0LTEuMzgtOS4zNy00LjA4LTEzLjUzLTYuNzh6bTcuNDcgMy4yNGM0LjYzIDIgOS4xNiA0LjExIDE0LjIzIDQuNzUgOC4wNSAxLjEyIDE2LjM3IDIuODQgMjQuNDUgMS4yNy0zLjY2LTEuNjUtNy40NC42NC0xMS4wOC0xLjE4LTQuMzcuOTQtOS4wNi0uMjQtMTMuNS0uODItNS4wNS0yLjI1LTEwLjUtMy44LTE1LjIzLTYuNzItNS45MS0yLjE2IDMuMDYgMi43NyA0LjY1IDMuMTcgMy42OSAyLjEtNC4wNi0xLjA4LTUuMTYtMS45NS0zLjA5LTEuNzQtMy40OS0xLjM3LS4zMS4zOS42NC4zNyAxLjI4Ljc3IDEuOTUgMS4wOXptLTguODEtNi4yM2M0LjQ5IDEuNjYtLjAyLTMuMTYtMi4wNy0yLjg4LS45MS0xLjU4LTMuNDgtMi41OC0xLjY3LTMuNDMtMy4yNiAxLjEzLTMuNDItNC4zLTQuOTUtMy41My0zLjQ1LTEuMDktMS4zNC00Ljk1LTUuNDUtNy4zMi0uMzctMi41LTQuMDgtNC42Ni01LjI2LTguNDMtLjUyLTEuOTMtNC4xOS03LjQ2LTEuOTQtMi4zMSAxLjkyIDQuOTYgNS4yOSA5LjIxIDguMSAxMy40NSAyLjE4IDQuMDQgNC43NiA4LjI2IDguNzIgMTAuNzggMS4zNCAxLjMgMi42MyAzLjI3IDQuNTIgMy42N3pNMzAuMTcgODMuNDVjLjE2LS42OC44MiAxLjQ2IDAgMHptMTguMyAxNi4xOGMxLS40NC0xLjQzLS41NiAwIDB6bTIuNDQuODljLS4yNS0xLjIzLTEuMTEuNjkgMCAwem0zLjA1IDEuMjdjMS40NS0xLjM4LTIuMjQtLjg3IDAgMHptNS4yMiAyLjkxYy44OS0xLjMtMi44Mi0uNDkgMCAwem0tMTAuMDMtNi45OWMyLjI1LTEuNDYtMi45MS0uMDIgMCAwem0yLjI5IDEuMTRjLS4wNy0uNzctLjgyLjM0IDAgMHptMTEuNDMgNy4xM2MxLjg0IDEuMTYgMTAuNzMgMi41NCA1LjE2LjQ4LS45My4yLTEwLjMzLTIuNjYtNS4xNi0uNDh6TTQ0LjcyIDkxLjg1Yy0uMTgtLjc3LTIuODUtLjg1IDAgMHptNS4zMiAzLjFjMS4zOS0uOTYtMi44Ny0uNzQgMCAwem00LjQ4IDIuNzVjMS45OC0uNzUtMy4yMy0uNzUgMCAwem0tMTEuOTctOC4yMWMyLjE2IDEuNjUgOC43LjIxIDMuMy0uOTktMi40NS0xLjMxLTcuOTktMi4yLTQuMjIuNzlsLjkyLjJ6bTE1IDkuMTZjLjktMS41My0zLjc3LS44OCAwIDB6bS00LjU2LTMuNjNjNS4yNyAxLjQ5LTQuNDMtMy4zNC0xLjMtLjU1bC43LjMyLjYuMjN6bTkuMTQgNS4yOGM0Ljk5LjA1LTQuNTEtLjY4IDAgMHptLTIxLjUtMTMuN2MtLjE5LS45My0xLjIzLjA4IDAgMHptMjkuOTQgMTguNDRjLjE0LTEuNjgtMS42MiAxLjI1IDAgMHpNNDkuMTUgOTEuODJjLS4zLS44OC0xLjU2LS4wNCAwIDB6bS04LjA0LTUuOGMyLjg2LS4xNy0zLjkzLTEuMjYgMCAwem0tOS41NC02LjE2Yy0uMzYtMS4zOC0zLjEyLTIuNDcgMCAwek01Ni42IDk1Ljc0Yy0uNTItLjYtLjI1LjEzIDAgMHptMTUuNTggOS41NmMtLjA1LS45MS0uODUuMzUgMCAwek01NS4yMiA5NC4zMmMuMjgtMS4xOC0yLjQ0LS4zNiAwIDB6bS0xMS42LTcuMzZjMi4xMy0uMjMtMy40Mi0xLjQ0IDAgMHptMTkuNjMgMTIuMmMzLjMyLTEuMzItMy4yNC0uNjQgMCAwem0tMTAuMjEtNi45M2MzLjgzLjQ5LTQuNTYtMi42MS0uODQtLjI4bC44NC4yOHptMTMuMzEgOC4xOWMzLjU4LTIuMTQgMi40IDUuMDEgNi4wNy42IDMuNjItMi42NC0zLjEzIDMuMjcgMS4zMy40NyAzLjIzLTIuMTYgNy45OSAxLjAyIDExIDIuMDYgMi4xNi0uMTEgNC4yNyAxLjg3IDYuNDkuNjcgNC4yNy0xLjE1LTguMzYtMS43MS01LjA1LTMuNzUtMy45MSAxLjE0LTYuOC0xLjM2LTguNzItMy44Ni00LjM5LTEuMDEtOS40Ni0zLjI1LTExLjY1LTcuMTQtLjg5LTEuNDYgMS4yOS4yMS0uNzctMi4xOC0yLjY0LTIuMzUtMy45Ni01LjAyLTUuNzMtNy44OC0yLjEyLTEuMTMtMi4zNy00LjQ2LTIuNTgtLjExLjAyLTIuNzQtMi41Ni00LjU5LTMuMTktMy44Mi0uMDEtMi42NCAyLjc2LTEuMzIuODItMy4yNy0uNDItMi43NC0xLjc5LTUuNTktMi4yLTguNjgtLjY0LTEuNDktLjA5LTQuNjgtMi4xOS0xLjMxLS43NiAzLjU3LS4yNS00LjM4Ljk0LTEuNzYgMS41Ni0yLjY3LS41Ni0yLjM2LS42NS0xLjk5IDEuMDItMi4yNi42NC01LjQ2LS4yNy00LjI0LjU0LTIuMzkuODYtOC44LS44MS03LjY2IDEuMDEtMi41IDEuOTItMTEuNDQtMi40Ny04LjAzLTEuNzguMDMtNC44NS42NC02LjMxIDEuMzcgNC41NiAyLjUxLS40Ni45MS0yLjMyLjUxLS4yNCAyLjMzLTIuMDggMS4zMi00LjM4IDEuMzQgMy42Ny40NS0xLjc5IDMuNzUtMy44OSAyLjQ3LTIuNzQgMS4zMSAyLjM2IDQuNTcuMDUgNS41OC4yOCAxLjUyLTQuMTktLjU1LTMuODQgMi45Ni0yLjY1LTEuMTItLjM2IDQuMTYuOTYgMi4zOCA0LjUxIDEuMjIgMy4xOCA0LjAxIDMuMjkgNi42NS0uNzQgMS41NC0zLjYzLTMuNjItLjY0LTMuMzgtMi4zNi0zLjgzLTIuNjEtMS4zOC00LjU2LjM5LS40NS4xMyA0Ljk5IDIuNTMgMS41NyAzLjcyIDMuMDEuNDcgMy4xIDMuMSAzLjcxIDQuNzYgMS44MSAxLjg4IDEuNDQtMi4wOCAzLjYuMTgtMS4zNy0yLjAyLTcuMjUtNS42OC0yLjUyLTQuNTEtLjAzLTIuMDMtLjg2LTMuNjcuNi0zLjYzIDEuNDQtMi42LTEuNTEgNi40MiAxLjczIDMuMTEuOS0uMzkgMS4xMi0yLjYgMi43My4yMSAyLjM0IDIuMy44NSAzLjk3LTIuNDYgMS44Ni41OSAyLjAxIDQuNDIgMi43MiAzLjcgNS44Ni43NiAyLjc2IDEuODMgMS43NCAyLjc2IDEuNTguNzMgMi42OCAxLjE0LjcxIDEuMTgtLjU3IDMuMzQuNzIgMi41NiAyLjY5IDMuNiA0LjA3IDIuMyAxLjA0LTMuMjktNy4wNC42Ni0yLjQzIDQuMTYgMy43NSAxLjU2IDUuMzItMi4xNyA0LjcyIDIuMzYtLjE5IDMuMTIgMy4xOSA2LjA3IDMuMDcgMi42OSAxLjI4IDQuNTIgNi4yLS4xMiA0LjE1LTEuNjEtMS40NS03LjMxLTMuMjQtMi42NS0uNDggNC4zIDEuOTkgNy43MSAzLjE4IDExLjg2IDUuNjggMi45NiAyLjEyIDQuMjUgNC41NCA1LjM3IDUuMDItMi40OSAxLjE5LTcuNTEtLjk1LTMuNzgtMS42MS0yLjMzLS40Mi00Ljk0LTEuNi0yLjcxIDEuMyAxLjg5IDEuNTggNi43MSAxLjQyIDcuNTggMS41OS0uNzMgMS42MS0xLjk5IDEuNzQuMDMgMS44Ni0yLjI1IDEuMjIuNzIgMS40MS45MyAyLjF6bS00LjYtMTNjLTEuMzctMS40My0xLjcyLTQuMTEtLjI0LTEuNzguNzUuMyAyLjQzIDQuMzguMjQgMS43OHptMTQuOTkgOS41MmMuODUtLjA2LjAyLjY1IDAgMHpNNTkuNTkgODMuOTFjLS4wNi0yLjE3LjQ5IDEuNjcgMCAwek01OC4xIDgxLjljLTEuNzMtMy4zMiAyLjE3Ljk1IDAgMHpNNDAuMDQgNjkuNDRjMS4wMS0uMjcuNSAxLjczIDAgMHptMTQuMzcgNy43OWMuNjItMi4zMy43MyAxLjk2IDAgMHptLTEwLjE1LTcuMDZjLS43MS0xLjI5IDEuNSAxLjIxIDAgMHptOC43MSAyLjc5Yy0xLjYzLTMuNjUgMS4xNi0yIC4zNi42bC0uMzYtLjZ6TTM3Ljk1IDYyLjk1Yy0uNzMtMS4yLTEuOTMtNC43Mi0xLjU1LTUuNzkuMzUgMS43NSAzLjcyIDcuNTMgMS42NSAyLjM5LTIuMjgtNC4zIDIuNzMgMS40IDMuMjUgMi40Ny4yNCAxLjA3LTEuNDEtLjI5LS4yOSAyLjIxLTIuMDQtMi44NS0xLjIgMS41OC0zLjA2LTEuMjh6bS00LjY0LTMuMmMuMTktMi43OSAxLjA2IDEuOTEgMCAwem0yLjA4LjcyYzEtMi4xMSAxLjY5IDIuOTMgMCAwem0tNS4wMi0zLjg5Yy0xLjczLTEuNzItMi45OC0zLjMuMDgtMS4wNyAxLjE4LjA1LTIuNjItMy42LjI4LTEuMTYgMy4wNi41NiAxLjUxIDUuMDEtLjM2IDIuMjN6bTIuNjQtLjA3YzEtLjk5LjUzLjk4IDAgMHptMS42Mi41MmMtMS41Mi0yLjg1IDEuODUgMS4yIDAgMHptLTMuMjItMy4wOGMtNS4wMi00LjQ3IDYuMzEgMi4zNC44Mi44M2wtLjgyLS44M3ptMTQuMzkgOC4zNmMtMi4xOC0xLjMtLjU4LTkuMTguMTYtMy43OSAyLjExLS42OC0uMTIgMi43OCAxLjQ2IDIuNzUtLjI0IDIuMTgtLjk1IDIuOTctMS42MiAxLjA0em01LjMzIDMuMTVjLjIxLTIuMzguNDUgMS42MiAwIDB6bS0uOTMtLjkyYy4yNC0xLjAxLjAzIDEuMiAwIDB6TTMyLjM5IDUyLjQ4Yy0zLjIzLTQuNDUgOS4zOCA0LjUxIDIuMDcgMS4xMy0uNzctLjIxLTEuNjktLjI4LTIuMDctMS4xM3ptMTAuMjYgNS40M2MtLjMxLTMuNzUuNjguNjIgMCAwem03Ljc4IDVjLjYtMi4xNC4wNSAxLjQxIDAgMHpNMzIuODkgNTAuNzhjMS45Mi0uNDEgNy45NSAzLjM3IDIuNDEgMS4wOC0uNjItLjY5LTEuOTMtLjM4LTIuNDEtMS4wOHptMTYuNDcgOC4yMWMuMi0zLjg0IDEuMTUtMi4yOS4wMS41NWwtLjAxLS41NXptLTE1LjA1LTkuNTVjLjc4LTEuMTUtMi4wOC01LjE4LjQxLTEuNDUgMS4wOC44NSAzLjExIDEuNDMgMS4zMSAxLjc5IDIuODQgMi41LS42OC42OC0xLjcyLS4zNHptMTQuMjQgOC4zNWMuNTQtNC4zNy40NyAyLjU2IDAgMHpNMzIuNjggNDUuNDFjLjYtLjI2LjMyLjc5IDAgMHptMy43MSAyLjIxYy45Ni0yLjAxIDEuNzcgMi4yMyAwIDB6bTEwLjQ3IDUuODJjMC0uNzcuMiAxLjEyIDAgMHptLS42LTEuMzRjLTEuNDUtMy41OSAxLjM1IDEuOSAwIDB6bS0uODktMi4zNWMtLjI1LTEuNDguODMgMS44NiAwIDB6bTEuNDUtMi4zNmMtMS0xLjc2IDEuMjYtNy43NSAxLjUxLTQuMDMtMS4wNSAyLjg5LS4zIDQuNTEuNDMuNjMgMS4zNi0zLjA2LS4yOSA2LjAyLTEuOTQgMy40em0xLjQ5LTguOTFjLjQ0LS41My4xLjY1IDAgMHpNNDUuODIgODcuNmMtLjU5LS41Mi4wNy4zMyAwIDB6bTUuMTMgMi42YzIuODYuNzQgMi44NC0uNDQuMjYtLjc5LTEuMzktMS4yOS01Ljc3LTIuNjYtMS44NS0uMTYuMjcuNjUgMS4wOS42MyAxLjU5Ljk1em0tMTAuMTQtNi43NGMxLjU3IDEuMTggNS45MyAzLjMyIDIuMjQuNDUgMS4yNC0xLjQ0LTIuMzgtMi4yMS0xLjE4LTMuMTgtMy4wNi0xLjg3LTIuNDEtMS43LS4yNy0xLjY0LTMuNjctMS42NC41My0xLjUyLjMzLTIuMzYtMS40Mi0uMjgtNy4wMy0yLjUtMy43My4xOC0zLjM2LTEuNzEtLjguNjQtMS44Mi4zOS0zLjQ0LS45NCAzLjA2IDIuNjItLjU0IDEuNzMgMS45NyAxLjU2IDUuMyA0IC44MyAxLjY1LS41Ny44NSAzLjIxIDIuMTQgNC4xNCAyLjc4em01LjM3IDMuMDljNi41MyAyLjEtMy4yLTIuNTggMCAwem0yNy41IDE2LjY1Yy4wOC0xLjMtLjkgMS4xMSAwIDB6bTIuODIgMS4xOWMxLjUxLTEuNDYuMDYgMi4zMyAyLjUtLjM2LjAzLTEuOTItLjA3LTMuMDYtMi44LS43Mi0uNzUuNDItMS4wOSAyLjE5LjMgMS4wOHpNMzEuNjUgNzYuMjJjLS40Ny0xLjgyLTMuMjUtMS44MSAwIDB6bTMuMDEgMS45OGMtMS4xMi0xLjg2LTQtMS42OCAwIDB6bTE3LjE3IDEwLjM1YzEuNjggMS40OSA3LjcgMS4wOSAyLjAzLjE4LS44My0xLjI0LTUuMzItLjk0LTIuMDMtLjE4em0yMy42IDE0LjU3YzIuNTctMi4xNi0yLjUuOTcgMCAwem01LjM2IDMuNjljLjAyLS42OS0xLjExLjMgMCAwem0uMDEtLjk3YzIuODYtMy4wMy0yLjc3LjE4IDAgMHpNMjQuMjIgNzAuMDFjLTIuNDMtMy40Ny0xLjUxLTUuMDMtMy44Ni03Ljg3LS40NS0yLjE3LTQuMDMtNy4wOS0xLjg1LTEuODggMS45OSAzLjA1IDIuNTggNy43NyA1LjcxIDkuNzV6bTU1LjY4IDM0Ljg3YzUuMjYtMy40LTIuMTUtMS40OCAwIDB6bTQuMDEgMS41N2MyLjY0LTIuMjYtMS42Ni0uNDcgMCAwek0zMC43NSA3Mi4zOGMuNzYtMS4xMi0xLjk0LS4xNCAwIDB6bTUyLjMzIDMyLjk5YzIuNTUtMS42NC0uNTktMS4zOS0uNDYuMTVsLjQ2LS4xNXpNNDguNSA4My41OGMtLjA5LTEuMTEtMS4zNS4wOSAwIDB6bTIuMTQgMS4yM2MtLjY5LTEuMzgtMS4wNS4yMSAwIDB6bTM2LjUzIDIxLjY3YzMuMjctMi4zNi0xLjk4LS40NS0uNjguNDVsLjY4LS40NXptLTEuMjYtLjZjMi42Ny0yLjIzLTIuOC45OSAwIDB6bTYuMzkgNC4yNWMxLjc5LTEuMTktMi4xNy0uMzggMCAwek0zMi4zOSA3MS41N2MyLjM5LjU0IDkuNTYgNS44OSA1LjMzLjM3LTIuMTctLjY0LS44Ny01Ljk0LTMuMDgtNSAxLjQ4IDIuNDggMS4yMiAzLjUzLTEuOSAxLjk3LTMuOTEtMS45MS0yLjIuOTQtMS40MyAxLjczLTEuMDQuMjUgMS4zOS45MSAxLjA4Ljkzem0tMTAuOS04LjYxYy40My0xLjc3LTMuOTUtOS43NS0yLjA3LTQgLjY4IDEuMjEuNjEgMy40OSAyLjA3IDR6TTQxLjUgNzUuM2MtMS4yMy0xLjAzLS4wNi0uMTUgMCAwem0zLjAzLjcxYzAtMS44OC0zLjM1LS43NyAwIDB6bTI2LjMgMTYuNTdjLS41LTEuMjgtMS45OC0uMDIgMCAwem0xLjI2LjkzYy0uMTgtLjcyLS43Mi4xNCAwIDB6bTEwLjQzIDYuNTZjMS0uNzQtMS4yNS0uMDkgMCAwek0yNi45MyA2NC4zNWMyLjg3LTEuMTEtMy4wNy0uNzkgMCAwem00MS41OSAyNi4yYy0uMDQtMS44Ni0xLjgzLjQ2IDAgMHpNMjUuOCA2MS43MWMxLjg0LS42Mi0xLjcxLS40MSAwIDB6bTUuMzQgMi41OWMtLjAzLS42MS0uNTYuMjMgMCAwem02NS4yMiAzOS45OWMyLjM3LS40OCA3Ljc3IDEuMjEgOC42NC0uNjMtMi44OC0uMDctOS45NS0yLjAzLTEwLjI4LjQ2bC42My4xIDEuMDEuMDd6TTMyLjg0IDY0LjczYy4wNS0xLjg4LTEuNDYtLjA3IDAgMHptLTE0LjA1LTkuNzVjLS42NC0zLjU4LTIuNDMtLjU0IDAgMHptMy4zNS44NGMuMDQtMS4xNS0zLjA3LTEuMDMgMCAwem0xLjkxLjk0Yy0uNTUtLjQ0LS40My41NyAwIDB6bTEyLjA2IDcuNzNjLjU3LS41Mi0xLjM1LS4zOCAwIDB6bS0xMy4zMy05Ljg1Yy0uMzMtMi43MS0zLjg4LS40IDAgMHptLTYuODctNC40NmMtLjEtMS4yNS0uNjcuNDcgMCAwem0xLjAyLS43N2MtLjE3LTEuNDgtLjg4LjE5IDAgMHptNS42NSAzLjM3YzIuMzktLjk0LTQuMzUtMS45NC0uNDktLjE4bC40OS4xOHptNzUuNTkgNDYuNjljMS41My0xLjQtMS45NC0uNDMgMCAwem05LjEzIDQuNzRjLjYxLTEuODEtMS41NC4yMyAwIDB6TTIzLjE1IDQ5LjgyYy4yNi0xLjc1LTEuODkuMzUgMCAwem0tOC4wMy01LjM4Yy0uNDMtMi40Ny0uMzctNi44MiAzLjc2LTUuMzUtNS41MSAxLjEgMy44MiA2Ljg1IDIuNjQgMi4zMSAyLjMyLjExIDQuNTMtMS4zNyAzLjMyLjg4IDQuNTctLjUgNy43My00LjQ2IDEyLjE0LTMuOTEgMy40NC0uNDYgNy4xOS0uOCAxMC44OS0yLjE4IDMuMDQtLjIyIDUuOTctMy41IDQuMzEtNS40NC00LjE1LS4zNS04LjUuMTctMTMuMDggMS4wOC01LjA4IDEuMDYtOS43IDMuMDYtMTQuODMgMy45My01IC42NyAxIDEuODUtLjQzIDIuMTEtMi42MS45IDMuMTEgMS41Mi0uMzQgMi40Ny0yLjEzLS40MS00LjM1LTEuMTQtMy40NC0zLjM4LTQuNzkuNjItOSAyLjYxLTUuMjEgNy40OGguMjd6bTExLjU0LTUuODhjMS4xMi00LjE0IDYuMDEgMy40IDEuODQuNTUtLjUtLjM4LTEuMzItLjY4LTEuODQtLjU1em0uMjItMi4wMWMxLjYyLTEuMi44Ni42OCAwIDB6bTIuMDYuMDRjLjE1LTEuOSA0LjcxIDEuMDEuNzUuNjhsLS43NS0uNjh6bTIuODEtMS4xNGMxLjAzLTEuMi4zIDEuMDcgMCAwem0uNzItLjQ4YzEuNzEtMi4wNiA5LjY5LTEuMzEgMy44NS0uMi0xLjU2LTEuMTgtMi43Ni43LTMuODUuMnptMTAuNDItMS42Yy0uMjYtNS42MiA1LjE4IDEuOTkgMCAwem0yLjk2LS4wMmMxLjA4LTIuODMgNC4yLTEuMTQuNS0uNTcuMDguMy0uMTEgMS40Ni0uNS41N3pNMjEuOTkgNDguMzdjMy4yMy0xLjk4LTMuNDMtMS43MiAwIDB6bTIuMzkuNjZjMS4xMy0xLjItMi40Ni0uNDkgMCAwem0tNy4wNC00Ljk5YzEuODUtMS40Mi0yLjE4LS41NCAwIDB6bTk1LjM1IDU5LjY1Yy4wNS0xLjY1LTEuNDEuNzQgMCAwek0xMDMgOTcuMDhjLjI4LTEuOS0xLjI0LjE2IDAgMHptMTIuMzYgNy4yNWMyLjU4LjAxIDcuODItLjggMi4yLS44LS44OC4xMy01LjEzLjExLTIuMi44ek0yNi40OCA0Ny44N2MyLjA5LS4xNCAzLjI3LTIuMy0uNDEtMi4xOC01LjY5LS41OSA1LjAyIDEuOTUtLjczIDEuMjItLjc3LjUxIDEuMDkgMS4xIDEuMTQuOTZ6bTEuODQuOTNjLS4yMi0xLjM0LS42NS43MSAwIDB6bTIuMTgtNS44MmMuOS0xLjEyLTEuMjYtLjMgMCAwem0tNi45NS0xMS42YzMuNzMtMS4yNyA4LjgyLTIuNjkgMTAuNTguNjItMS43OS0yLjE1LS43Mi00LjI4Ljk3LTEuMTIgMi4zOSAzLjE5IDMuNTktMS40NSAyLjAzLTIuNTIgMS43NyAyLjIgMy43OSAzLjI0IDEuMTkuMTQgMi44My0zLjQtNS42Ni40NS03LjU5LjQxLS45Mi40MS05LjU4IDIuMi03LjE4IDIuNDd6bTIuMTktNC4xOGMyLjEzLTEuNiA3LjM1Ljk2IDQtMS41OS0uMzMtLjMtNy4zNSAxLjkzLTQgMS41OXptNy43NS4zMmMyLjQ5LjA2LTEuMDctMy4zNCAxLjg5LTEuOC0uNDktMS41OS0zLjQ1LTEuODktNC45LTIuNTItLjgyIDEuNDUgMS42NiA0LjM0IDMuMDEgNC4zMnptLTYuMzktNy4wNGMuODYtMS4xNi0xLjUxLjYgMCAwem0zLjE2Ljc2YzQuMDEtLjUzLTEuMDItMS43Mi0uODEtLjA0bC44MS4wNHptLTUuOTEtNC42MmMtMi44Mi0zLjY5IDUuMzEuNjIgMi40NC0zLjI0LTIuNDEtMS45Mi00LjczIDIuMTYtMi40NCAzLjI0em0zNi4yMSAxOS41YzEuMjktMi4yOS01LjM0LTMuMDktLjg3LS44MS40Mi4xNC4zMi45Ny44Ny44MXoiIGZpbGw9IiMwMTAxMDEiLz48L3N2Zz4=;labelPosition=right;align=left;html=1;" vertex="1" parent="1">
          <mxGeometry x="271.51" y="469.25" width="46.5" height="46.5" as="geometry" />
        </mxCell>
        <mxCell id="xaPDUZxKduhi3FaCsTeQ-26" value="&lt;pre style=&quot;border-color: var(--border-color); text-decoration-thickness: initial; text-decoration-style: initial; text-decoration-color: initial;&quot;&gt;10.201.201.0/29&lt;/pre&gt;" style="text;whiteSpace=wrap;html=1;fontColor=#FF8000;" vertex="1" parent="1">
          <mxGeometry x="180" y="282" width="120" height="50" as="geometry" />
        </mxCell>
        <mxCell id="xaPDUZxKduhi3FaCsTeQ-27" value="&lt;pre style=&quot;border-color: var(--border-color); text-decoration-thickness: initial; text-decoration-style: initial; text-decoration-color: initial;&quot;&gt;&lt;font color=&quot;#009900&quot;&gt;10.201.201.8/29&lt;/font&gt;&lt;/pre&gt;" style="text;whiteSpace=wrap;html=1;fontColor=#FF8000;" vertex="1" parent="1">
          <mxGeometry x="197.32" y="680.5" width="120" height="50" as="geometry" />
        </mxCell>
        <mxCell id="xaPDUZxKduhi3FaCsTeQ-28" value="&lt;b style=&quot;border-color: var(--border-color); font-family: Helvetica; font-style: normal; font-variant-ligatures: normal; font-variant-caps: normal; letter-spacing: normal; orphans: 2; text-align: center; text-indent: 0px; text-transform: none; widows: 2; word-spacing: 0px; -webkit-text-stroke-width: 0px; background-color: rgb(251, 251, 251); text-decoration-thickness: initial; text-decoration-style: initial; text-decoration-color: initial; color: rgb(51, 51, 255); font-size: 10px;&quot;&gt;:8888&lt;/b&gt;" style="text;whiteSpace=wrap;html=1;" vertex="1" parent="1">
          <mxGeometry x="352" y="268.5" width="32" height="23" as="geometry" />
        </mxCell>
        <mxCell id="xaPDUZxKduhi3FaCsTeQ-29" value="" style="sketch=0;points=[[0.015,0.015,0],[0.985,0.015,0],[0.985,0.985,0],[0.015,0.985,0],[0.25,0,0],[0.5,0,0],[0.75,0,0],[1,0.25,0],[1,0.5,0],[1,0.75,0],[0.75,1,0],[0.5,1,0],[0.25,1,0],[0,0.75,0],[0,0.5,0],[0,0.25,0]];verticalLabelPosition=bottom;html=1;verticalAlign=top;aspect=fixed;align=center;pointerEvents=1;shape=mxgraph.cisco19.rect;prIcon=l2_switch;fillColor=#FAFAFA;strokeColor=#005073;" vertex="1" parent="1">
          <mxGeometry x="130" y="790" width="50" height="50" as="geometry" />
        </mxCell>
        <mxCell id="xaPDUZxKduhi3FaCsTeQ-30" value="https://console.ecstasy.loc:8888/?&lt;br&gt;hostname=shared-server&amp;amp;&lt;br&gt;username=default&amp;amp;&lt;br&gt;password=cGFzc3dvcmQ=" style="text;whiteSpace=wrap;fillColor=#d5e8d4;strokeColor=#82b366;align=left;html=1;fontFamily=Lucida Console;" vertex="1" parent="1">
          <mxGeometry x="230" y="100" width="260" height="71.5" as="geometry" />
        </mxCell>
        <mxCell id="xaPDUZxKduhi3FaCsTeQ-31" value="" style="shape=image;verticalLabelPosition=bottom;labelBackgroundColor=default;verticalAlign=top;aspect=fixed;imageAspect=0;image=data:image/png,iVBORw0KGgoAAAANSUhEUgAAAYsAAAClCAYAAACtMdF5AAAAAXNSR0IArs4c6QAAAARnQU1BAACxjwv8YQUAAAAJcEhZcwAADsMAAA7DAcdvqGQAABceSURBVHhe7d1faCRHfsDxn8xCDvthpTV3N2ti4+AYr+44kP8E1hcSJJvk4B6C9sH4HsIh7RluHwKjzRrjBxOGewrGeydBHvZA9ohwD1mW4MFv5pBGXDh2ITYrWG57Q2ws1od37CMe7cMFBwydqu7qmeq/VS2NtJrV92N+6+npmu6q0kz/uqtnuidEJFQBAECpB8z/AQAoRbIAADiRLAAATiQLAIATyQJjqindfiBtMwVgf92bZHHxUXnz9nNx3HhYTpqnfZ25YV57+1F51jx3uBwbgzqOsWZX+uGyzE6ekoUwlDC8l0mjLUFUh3tdj11oB6rOfek2zXRW1M9J20IJihqXKlOxLB+u+hjNbn9Qp7DfVbsNllHVx2c5tcuU9GEdZnnFy7HfiyNYVwH91dmDi7MPh6/ffjI8czaefnbjufD1y8fy5Rxx8vKTodoQh2pDXDj/MMQ41HH8oh0G6j/1OTDTzVAdYVjTNaIdqG1Ns3he7dhDPerEKOqslhHpd8Nu0A/VRq6gnG6PPS87rUP/LeznstOe4VUfHboOqlzQLpinI/veyE77hk+7fMr49GGdiNcRqD5SiSA9r9lVc1z12Vsc+JHFyR+cELn6ibz7Tjz94fXP5cR3jtc+usAR1XxcGreuyaKZFFmRualpaxpOi9MyMTEhE1Nzsm2eymnOy0yvI3MrZjrq547I/HD3udmdF1mbssosyqVNkcaMmfTlUx+l2W3JzNaSTEyX/LXVe0M2L1nvBV2fhpxW2aIOn3Z5td2jD+toBwvS2GzJpZ55wrYyJ1MTI/hbVJjQe7/nnz+uHn4uV69+Q56PHisfBfLaC3+MHxuqrMRlDY8yH18JRF56RL5o/XeUINSRhDx3/QP55YVjcubGjERF734iv/je/8id+CURXe7lPzcTCWt98Xq+qqxz0TK+vLol//zy12bKqoPclatXvpSnXvozUelM+VwuP/apfBg9tssZuToXlInYy/Hjaru7Pu52PXbjOev1qkzrM/lWa1qeMM/ocq+pcqNYl912PYSwPDspO5tLMjV8Z8ce/RdZ+NlfRq/9aPVpee+38dNZakdUTl+bkLJthps+XF+QU2ZqaEc2l+wP3AVZ778lL0yaSWWn+6pMvXDRTNn0OZRzsp1NXHrYYHlWJnc2ZbM3K7PJSm+tZTZ6rnX51rmedtCXxy8VvV63pyXSGs7T/b7Q2JQltVEvXl3+NXVV16egf1NUmWBeOtPD+rUDtf2Z3uvOhE+7isrkn3P3YQk9RHf6WvSe0Z+hc9tTjve/fr/MS28P740iZrjEHg56KPxpavpYeObGc5khlbjMmzceDtVRQfScHlJ60xpiyj8XL+enF63hp4uPppahI66PvS6z/o2HMmWq6lwQ0RBYvP7U87oOui2D18frix8XLdfUZ1DvfF8MlzlsR9wXBWG9zt12n/qYqGzXcP6gP0z/DJc9wnWZUG90M+KQHUp5Nfy79vVw4cc/CFXSCBfavwn/4lEJp378m/Af2/8WqiRmlTXDEYnSYQlHqE9u1ZDOahCGN9/JP9ffuJB6Lg5dp7IhDz0kkG6zHnmxhxK81+Woc91QG+fyoYpoaGOo3+2GQb8bqv3iwvLZNu0myuuj+lCv265TUV10JSyj6CufdpWWqdmHhREtY/je0p+h0voM2j/aISgd1jDU5/LrwR73/8kXd0VOfPNP4smzx+Uptef48RV7L/GP8ssrn4scPyGnz6rJsw/L36i94Y+vxEcQCT3MVKb/+2R9aXd+/5X699vycnIS/PaMPHVzK3cUU1nnyEOiNnZmGSpayR5vseFRx9fy7vc+iB6fvPxItLd94vmZ4XJUfaI9adP2uIzaq/6FdaRx4VO5/JF5bHz4wgdqb70grCMUV9t96pNV1K7IhTtyVfXZE38bf8ng2b/X/TPs05Guy1iZm4qGHHJHFfKWvLf4tKz96/sin/6DrK1+Jn/1s+uyOCfyH//0I/nYlIrpw/mJeOhCxVJvfh9O5q3K99Vu/PTi8IShjp+o5yaf/qE6DqhJHVm0rDZv9XbMI23E6xqVaGhj2M96BKVhZqXpPehQ5ntLezjac9DDj+q/c62GdJI6dRqybP/h9VHcfE+WrDp3Gq09nHT3aZejjHcfVphpyKQ6poy/zBFGR+anFkpOYCdDehMdaSzv8QsHGX7nLL77oNqI3JUvfmemE7/7X/lSjsu3vmumi6iN5muPJQnka7n9h+hZteHUw1Nq4/PSt9WG50F5JH46Fr1Gb0iDwUYi2mDV+eaUSl6v356WJ/TwTbJRbn2i6lvmrvzX++kN25AepjHLSIWdGL+S21aS3DWvtvvUJ1HVrq/l2k2VLfSG/2Kc7L+8eiczZDaqddX02x/Jz1Xy+PniX8t/6tEwQx+Cq71FMxWbaVhjN6O0syGvWh/0QUy9KEUDUXtykOvapeb8jMpynfTwSfTtnGVpdIp2AEZopSNbehCuYw0pLV6STXlcba4NtVHN1m+rt8txe5927aLthX3oMkgAcSxt7sitNdcw7KJML23JzLnR7UX5JYtoD/S4PN+yvwaq9tr1nvrdT+Q9vevzjtpQ6L3Ul7JfFY337l+/fCya+uwPd2XqT/VjdWQy2PDYRyzH5Iz+2unGQ+rxsEx2L93JJLirv7LG+c9XH1kUufPyZ2qjrdp+Pp2o9HmFN28/KWfU3vWd979USUgdDUR1NsyRVj3utvvUp47B8qLzDPaR2ujXpemNvd47ym7w65icXU7tgY9sjzb66mby9ddX5O3rz8gbG5n9+vPr0u+vj3hvfw/rStV5/+i/2/LMVuroKPpbLsd7+kn/6+eK9niTv7seP9kddTTZuSWn7LPV+gSybA83vIWZoSe9LfPQUlUfn3b5lMnS87N9mIiWt4f+iV6feq064mnNquYXNH6XrBPcmj4heUces09oqmSgh0k0vZFInXgtOMGdK6PZ5fQef+tB+bVJEGr9cv6bn1WfvI0MT5ZGr6mqs1lfupxKHPbJV13mV99QdSlOIB9f0SfhzURJndIny3VStE4Qq367fPOEvGxepDf6bu62xxz1ifrYp12xpJ/S7UmMdl3RB6bsBHctbQn6j8uluicKU/QQgv69hpncyZ94XA3i4aChQN6e+I7avMfa+oRlar6RLCs5wR09eUvWJqZly/SBZveDa10xd52dUnWypE66Z06o507IZ+phKdrrTf7u+eUoXvWJDZYTifszVavUfKVofUp5fXza5dt2Vx8OVfbPQHp52X7Otn3vn7G0e3OJcv2jPD38FMl/YwZwG0WyAOCL+1kAAJzuzeU+AABjhWQBAHAiWQAAnEgWAAAnkgUAwOneJYvo14/cvAYAxgFHFgluBFPOZzm1y4z/jWCAIya+ImaxA7iZy72O5CqNlTde8bmJie5H+7nstGd41UeHufIqN4LRVzlIzzuAG8EQxBEM9UEabHDU48Hlc/WH+QgkCyvaZRtnvfHJbZTbYde6/LHaw89ttIqeqxOl9VGhl115+WVV5yAzfzf18WmXTxmfPqwTOqfq9vu2ybccQRDF4T8MFQ2L6EN6fZ5BXxslf4ivr5MzLKNZ5ZJCqeGBgnMWyVBFvyvdwfJUDF4/NFxffGG6ZLqg6N7oK1425lNDK/quVbMz84NhH33p7fQlXZqiLzA5wut4WfSye9Kpuu6LqnNP1dkeDZpp9ORa2WVnSvi0y6vtHn3oTb0XF2StxnVv2nJutNdUA46iOkcWZuhDKdxLy9ykI46yIYCqIxf9mnjPMXlO70na60z2LO1p9cyehhqq9uTjtg1xI5jyKC1Tsw8LI/MeqzxiGLR/b+8LgiCisCfsZFEU7qEp/eG1N0p6Wn2aU2XicCSLTD3SG4Wieurl7WOyyIbeaBX2VZxQR7NhLqlPtO5A9YHVf/EWOlMmXb9a7cuFT7tqtr20DysikwAT1QlM73yQMAhiLzHyb0OtzHWkN3vODC/Fh/+bl2qOfezKimwX3ch8n3AjmIxdtH2cbwQDHDX78NVZ9cFcE5lXu3F6TPrUrc5IbxgeW5RrvVlJffb1OHbqXgD7Rx3lcCMYe9UeZbL0/MNwIxifdY2qDDDu1CGGPkzPsoeI4uGFvLJD+6R8fpipZBRBj13EwxHRmHQifr36IJppe4gjUyf1+uqvmpZEan2W1NBZpn9yw2pl/aOL2uXiGLSnaHjOqz5x2P2iCuT6Oj1fKVqfXW5X7fJtu6sPh1HZP4NILy/bz9m2lw2N+axrVGUIYpxj3+5noZJCdLvLfR2OyWgHfXn80tQ+HMkAwNG2P8lCj19HwxLpWx7uL/2V3NNy7UDXCQBHR+pQY/dRMByxz4fk6SEtvu1CEASxX8FtVQEATlxIEADgRLIAADiRLAAATiQLAIATyWI3kivjjsOvdbmpUzmf5dQuM4KrHpvlFS+Hmzrh3om/GpX5abV6E+7xwnOHJFS7RnFRv1zoX1rv5qvB+1WfbCR/z8pftuuvO9vzstM6shfhy057hld9dJivYJf2rV6//Wv17LRv+LTLp4xPH9aJeB3c1Ik4hKH+0R/k1NU/zQf2fngjHtVkYUXl1WtzbeCmTnXK+PRhnYg/itzUiTiUoRJDUHap7cyHOtk7TNgfkmivR4n2HKO5sbplorgQrkcFh/obFzJlVCTLS6h2DC97rve6imQ3VH7rSjddraNwI1EVvvVRUdXPu4jyjXP+bxytOrXjkI297jm76uM6Ssi/X9vBbo4ssuHTrqIy+efcfVgS+oXmb+2XBDiyIA401BvOY2Ok37zZD0D0XOq18QbR3jOM3//D1/iUWVXTN98ZTifPpTbi0ScyvZGI6pN5zrUn77MuvarUMpIktZuNuKM+fv1cLyqHEzMJl5s6lUdpmZp9WBjRMobvXf03L63PoP0kCuJAwydZ5Pfmkkh/8M2H3Zqff9O7yqyGN81HIae/Hl4wr6ncANqhPljlGxOfdZX0j/5wjzxZ+PZzvaj1Wt2uwg2d3oMe1Ya5pD7Rurmpk606gan3JgmDOKB4QGRLeo3T5mZFh8TOhrxqbm6TiqkX5aIpMjIHua4xwE2dMnbRdm7qhPuRShYrMtfqyXz264nRV/SSrwquSKc3k77ZkKY+SPMy6psbvSJvX39G3thQ+/W28+vS769L8uzitZ7MtqrqXCL66mZgkqPPuhblmmplepnxzXQmzdSepOpzkP2cp47wuKmTvWqPMll6/rjc1AmoKz7MyB0GZw9v40PxNGu4QB96m2eT59Ub1kybQ3ifMmZ5+rxB2s1w1cwbhLPOOjL1LhgecK9LH+6nBV3TFrU8e1nucNXH0c++keprS2roLNOu3LBaUV1iahuUKWv9LcuG7eK5aQVl7feEKpBre3q+UrQ+u9yu2uXbdlcfDqOyfwaRXl62n7NtLxsa81sXQfgHV50FADjxC24AgBPJAgDgRLIAADiRLAAATiQLAIATyQIA4ESywMGKfhGd/AgRwLggWbhEv7AOpV/5s3AcRk3zK+bKv12UvMpvItQO4psMhY4E57UuYKyV/bJWq3sxtPs11Baj7JeyhzrGtd6jCvML/6Jfm8ehf6Wtf/WvfzVd9St5Xc7xK3rnughivOMBWZmTqYk1ubWzKUvmImZxqOdUCWBsbfVkR/1XdN0orR0sy8xWS+ZWFmV6TWQhd320GhzrAsZdfhiqHZQeSieH2kkE3a6KTFlzWD8oF3RF7ZUND+Gz8zMX/ksO+4N2U73OKpf7IF+QdXu+in72goC+XHU2krrFZTJzHe2KmCGteEgj3b7B4nyWo1XW2dyneeGUTM4uVyzLow996uzF1GmwrGJe7zFfK9vSMw9zVLsWGpvDC/4tTstab1Za+7Eu4D6hDjHSFy8rHLrQw1Wpi5LFF1pLlY0OxdOH6/EFzezn2mE7dyG2oteoV9nl9LKtYTGfmxZ5hU+dozLptuqn0kMO7nbFMbxAXfr1SXgsx6uf43JVw1D+feiqc52oGNLxeY/dk6ioM0EcndD/qA1SsiGu2MCYbeZQ5pyG301o0okplt/wFdWh2Q3M8v1ukOQTXnUu6BNdx2yycLUrDteGx70c75v9VCaLOn04yo1l9bJc77F7EyQLgsgPQ6nD8bKbvCxO2+c0JmRpa0aW1RbTnx7GmJfekr2cJdncMbMtve2iOjSGtzI4VDct8m9XtVEtx9MhvPHT3t9jAPZD5Vdn1R7sYIxb7UnnzmWsbPdkxzqj574h0Yw0Jnti54FmtyWzBXcROrWQHdduy7mZLbkU3YTG7wZJPnZ9E6UU/3ZV81vOwd346WD5vMfGmW6fOlbihkQYU1VfnVVz1Gc3OgTRwy45RUME+XGE9JBJdn7QVYf4+kF6XYObCw3kh17cNy3yjKo62/PMeLrdF4NhHme79FBGNCejfv8Ulivon9w6C/5e1X3oWWePyFU3YdXJ+z124DGaYahB+7ghETGGcShvfqQ+VHJue8px/2HgoOjhwXOyPWXdGxw4YvgFN1BBHRFJGC7vYkgRuL8cuiML/eFcOGUmZEc2l6ak5Hw7AOCAcA9uAIATw1AAACeSBQDAiWQBAHAiWQAAnEgWAAAnkgUAwIlkAQBwIlkAAJxIFgAAJ5IFAMCJZAEAcCJZAACcSBYAACeSBQDAiWQBAHAiWQAAnEgWAAAnkgUAwIlkAQBwIlkAAJxIFgAAJ5IFAMCJZAEAcCJZAACcSBYAACeSBQDAiWQBAHAiWQAAnEgWAAAnkgUAwIlkAQBwIlkAAJxIFgAAJ5IFAMCJZAEAcCJZAACcSBYAACeSBQDAiWQBAHAiWQAAnEgWAAAnkgUAwIlkAQBwIlkAAJxIFgAAJ5IFAMCJZAEAcCJZAACcSBYAACeSBQDAiWQBAHAiWQAAnEgWAAAnkgUAwIlkAQBwIlkAAJxIFgAAJ5IFAMCJZAEAcCJZAACcSBYAACeSBQDAiWQBAHAiWQAAnEgWAAAnkgUAwIlkAQBwIlkAAJxIFgAAJ5IFAMCJZAEAcCJZAACcSBYAAKcHmt2+hGFoIpC2erIdJNMq+t245CEyrHNcX+2w1xkAxl2oNr5h0JZQPx5Esxv2g3b6uUMUus79fl/lC6uOh7zOBEEQ4xq1hqHSRyGhBN2uiqaZq12Q9b61h6+iv3HBzDPagZmnjwqaorb5g7IqYdXS67RkszEvqSrYml1R6WSw/DDsp8pG8/qBBKYOQduqT6oyHu0ykj7ql1YKAMaPf7JQG95WoyMTExMmlqQ3MysNM1tbDd6Sk+8m8+P495NvpTesi9PRazd3TslCuCyNzrDs9KIp421F5jo9mW11VdopsLItnTW7Ph1pLA+HrqYm1uTW5CmRqA5rIgtJfVT9GqcH5bzaBQD3Mf9ksTInHVmw9q6XZVY2pTW3YgqsyvfVdnd6Mb0H/hP13OTTP1T75lm3ZE1tdOsniAyVfNZ6s9Iq2ZM/vWDXZ0FUddJ2NuVSVIct6e3ckmu5+tRr18rcVJRMpgb9AgDjr9Yw1OJ0eu96aWtGlu3hmp0NedWaP4ipF+WiKbIfFqfXpDfbku6MeSKih5Tmpbdk10Uf0ZjZddyjdgHAYREli5XOljQWhsMzWvvcrPSs3Ww9Fp8dh1/Z7slOb8tMvSJvX39G3sgOzZxfl35/veDIYpQWZXqtJ7PzdraYkcZkT7atHfxmtyWzk2bCW712cc4CwP0qPtutv0mktnIJtbFLnQnX3z7K6XdDtUlMlVsNzLyBm+HqYH4zLFqMWlCotq2p5VRFui5BqJKcet4s2/42VDtTmaBr1h+vb7gUvYykbvbj/mBZ1e0aRlK3bP8RBEGMc0yYBwAAlKp1zgIAcDSRLAAATiQLAIATyQIA4ESyAAA4kSwAAE4kCwCAE8kCAOBEsgAAOJEsAABOJAsAgBPJAgDgRLIAADiI/D8uXewMv8Gk+QAAAABJRU5ErkJggg==;" vertex="1" parent="1">
          <mxGeometry x="500" y="590" width="263.33" height="110" as="geometry" />
        </mxCell>
        <mxCell id="xaPDUZxKduhi3FaCsTeQ-32" value="" style="shape=curlyBracket;whiteSpace=wrap;html=1;rounded=1;labelPosition=left;verticalLabelPosition=middle;align=right;verticalAlign=middle;" vertex="1" parent="1">
          <mxGeometry x="460" y="585" width="40" height="120" as="geometry" />
        </mxCell>
        <mxCell id="xaPDUZxKduhi3FaCsTeQ-33" value="ssh" style="text;html=1;align=center;verticalAlign=middle;resizable=0;points=[];autosize=1;strokeColor=none;fillColor=none;fontStyle=1;fontFamily=Lucida Console;" vertex="1" parent="1">
          <mxGeometry x="338.98" y="555" width="50" height="30" as="geometry" />
        </mxCell>
        <mxCell id="xaPDUZxKduhi3FaCsTeQ-34" value="http&amp;nbsp; ws" style="text;html=1;align=center;verticalAlign=middle;resizable=0;points=[];autosize=1;strokeColor=none;fillColor=none;fontStyle=1;fontFamily=Lucida Console;" vertex="1" parent="1">
          <mxGeometry x="300" y="413" width="80" height="30" as="geometry" />
        </mxCell>
        <mxCell id="xaPDUZxKduhi3FaCsTeQ-35" value="&lt;div style=&quot;border-color: var(--border-color); text-decoration-thickness: initial; text-decoration-style: initial; text-decoration-color: initial; font-size: 8px;&quot;&gt;&lt;font color=&quot;#009900&quot; style=&quot;font-size: 8px;&quot;&gt;10.201.201.11&lt;/font&gt;&lt;/div&gt;" style="text;whiteSpace=wrap;html=1;fontColor=#FF8000;fontSize=8;fontFamily=Helvetica;" vertex="1" parent="1">
          <mxGeometry x="241" y="590" width="68" height="17.5" as="geometry" />
        </mxCell>
        <mxCell id="xaPDUZxKduhi3FaCsTeQ-36" value="&lt;div style=&quot;border-color: var(--border-color); text-decoration-thickness: initial; text-decoration-style: initial; text-decoration-color: initial; font-size: 8px;&quot;&gt;&lt;font color=&quot;#009900&quot; style=&quot;font-size: 8px;&quot;&gt;10.201.201.10&lt;/font&gt;&lt;/div&gt;" style="text;whiteSpace=wrap;html=1;fontColor=#FF8000;fontSize=8;fontFamily=Helvetica;" vertex="1" parent="1">
          <mxGeometry x="241" y="519" width="68" height="17.5" as="geometry" />
        </mxCell>
        <mxCell id="xaPDUZxKduhi3FaCsTeQ-37" value="&lt;div style=&quot;border-color: var(--border-color); text-decoration-thickness: initial; text-decoration-style: initial; text-decoration-color: initial; font-size: 8px;&quot;&gt;&lt;font style=&quot;font-size: 8px;&quot;&gt;10.201.201.3&lt;/font&gt;&lt;/div&gt;" style="text;whiteSpace=wrap;html=1;fontColor=#FF8000;fontSize=8;fontFamily=Helvetica;" vertex="1" parent="1">
          <mxGeometry x="240" y="445" width="68" height="17.5" as="geometry" />
        </mxCell>
        <mxCell id="xaPDUZxKduhi3FaCsTeQ-38" value="&lt;div style=&quot;border-color: var(--border-color); text-decoration-thickness: initial; text-decoration-style: initial; text-decoration-color: initial; font-size: 8px;&quot;&gt;&lt;font style=&quot;font-size: 8px;&quot;&gt;10.201.201.2&lt;/font&gt;&lt;/div&gt;" style="text;whiteSpace=wrap;html=1;fontColor=#FF8000;fontSize=8;fontFamily=Helvetica;" vertex="1" parent="1">
          <mxGeometry x="241" y="324" width="68" height="17.5" as="geometry" />
        </mxCell>
        <mxCell id="xaPDUZxKduhi3FaCsTeQ-39" value="" style="sketch=0;points=[[0.015,0.015,0],[0.985,0.015,0],[0.985,0.985,0],[0.015,0.985,0],[0.25,0,0],[0.5,0,0],[0.75,0,0],[1,0.25,0],[1,0.5,0],[1,0.75,0],[0.75,1,0],[0.5,1,0],[0.25,1,0],[0,0.75,0],[0,0.5,0],[0,0.25,0]];verticalLabelPosition=bottom;html=1;verticalAlign=top;aspect=fixed;align=center;pointerEvents=1;shape=mxgraph.cisco19.rect;prIcon=l3_switch;fillColor=#FAFAFA;strokeColor=#005073;" vertex="1" parent="1">
          <mxGeometry x="191" y="790" width="50" height="50" as="geometry" />
        </mxCell>
        <mxCell id="xaPDUZxKduhi3FaCsTeQ-40" value="telnet, ssh" style="text;html=1;align=center;verticalAlign=middle;resizable=0;points=[];autosize=1;strokeColor=none;fillColor=none;fontFamily=Lucida Console;" vertex="1" parent="1">
          <mxGeometry x="160" y="750" width="100" height="30" as="geometry" />
        </mxCell>
      </root>
    </mxGraphModel>
  </diagram>
</mxfile>
